<svg viewBox="0 0 2600 384" xmlns="http://www.w3.org/2000/svg"><path d="m2597.87.03c1.65.05 3.23-.64 3.12 2.5-.34 9.65-.12 19.33-.12 28.99v345.44c-1.95.33-3.89.93-5.84.95-8.65.08-17.31.18-25.95-.06-25.93-.71-51.86-1.81-77.8-2.32-26.14-.51-52.29-.17-78.43-.8-19.43-.47-38.86-1.63-58.26-3-14.25-1-28.43-2.89-42.65-4.29-9.27-.91-18.57-1.62-27.84-2.48-5.6-.52-11.19-1.62-16.79-1.66-12.96-.08-25.94.75-38.89.44-17.6-.42-35.19-2.27-52.78-2.25-49.46.05-98.93.77-148.39 1.16-18.28.14-36.57.04-54.86.13-8.81.04-17.64 0-26.43.46-12.46.67-24.88 1.87-37.34 2.6-1.55.09-3.64-.87-4.7-2.05-5.06-5.59-6.55-5.52-13.65-2.78-7.87 3.04-16.09 5.23-24.27 7.36-3.92 1.02-5.66-1.17-4.75-5.1.26-1.13.7-2.22 1-3.34.94-3.53-.1-5.78-4.07-5.02-3.04.58-6.1 1.53-8.88 2.88-7.99 3.9-15.97 6.87-25.23 6.15-14.25-1.12-28.57-1.26-42.82-2.35-4.14-.32-9.34-1.33-11.95-4.04-4.95-5.14-9.29-4.08-14.63-1.74-7.58 3.32-15.36 4.58-23.79 3.06-8.78-1.59-17.77-2.81-26.66-2.75-12.13.07-24.24 1.65-36.37 2.33-22.92 1.29-45.83 2.78-68.77 3.46-15.12.45-30.29-.58-45.43-.52-12.46.05-24.91.75-37.37 1.09-11.81.32-23.62.61-35.43.8-23.43.38-46.86.94-70.29.92-14.1 0-28.21-.9-42.31-1.51-4.8-.21-9.6-1.26-14.36-1.07-13.13.53-26.24 2.17-39.36 2.2-53.31.11-106.63-.08-159.94-.45-19.93-.14-39.86-1.06-59.8-1.63-13.31-.38-26.62-.78-39.93-1.14-9.12-.25-18.25-.45-27.37-.71-8.14-.24-16.29-.82-24.43-.73-6.28.07-12.55 1.15-18.84 1.43-12.3.55-24.62.69-36.92 1.31-6.95.35-13.87 1.9-20.8 1.9-8.27 0-16.57-1.82-24.81-1.56-18.78.59-37.54 1.79-56.28 3.12-5.54.39-9.96-.41-13.91-4.69-3.51-3.8-7.8-6.88-12.17-10.63-1.91 4.72-5.8 7.88-.26 13.08-6.92 1.49-12.47 3.58-18.08 3.72-18.15.44-36.31.28-54.47.11-5.04-.05-10.22-.43-12.36-6.6-.55-1.57-2.4-2.68-3.68-4.04 2.95-5.67 6.08-11.45 8.89-17.38.43-.91-.62-2.52-1.07-4.11-8.95 5.38-17.19 10.08-25.15 15.2-5.44 3.5-10.28 8.19-17.6 6.06-.41-.12-1.16.05-1.39.36-4.55 6.11-11.06 5-17.48 5.25-8.45.33-16.85 2.04-25.3 2.25-4.87.12-9.77-2.12-14.7-2.31-27.92-1.07-55.85-2.04-83.78-2.59-9.09-.18-18.2 1.13-27.31 1.48-7.64.3-15.31-.1-22.93.35-13.09.77-26.14 2.49-39.23 2.83-12.57.32-25.06-1.59-37.77.09-18.85 2.5-38.14 1.68-56.31 8.96-5.5 2.2-11.72 2.64-17.67 3.89-1.36-10.39.49-9.92-10.27-9.59-2.3.07-4.58.71-6.87 1.06-4.73.73-9.45 1.99-14.19 2.05-13.66.19-27.32.01-40.98-.29-3.93-.09-7.83-1.14-11.76-1.64-6.54-.83-13.09-1.98-19.66-2.21-6.11-.21-12.26.7-18.39.97-16.12.71-32.23 1.32-48.35 2.01-1.15.05-2.28.47-3.44.6-15.52 1.75-31.01 3.89-46.57 5.1-12.89 1-25.81.69-38.78 1.85-26.77 2.38-53.73 2.68-80.59 4.11-2.62.14-5.15 2.17-7.72 3.32-1.65-.05-3.23.64-3.12-2.5.34-9.65.12-19.33.12-28.99v-345.46c11.6-.15 23.2-.46 34.8-.38 9.3.07 18.6.63 27.9.96 9.79.35 19.58.64 29.36 1.08 3.65.17 7.29 1.04 10.93 1 14.99-.15 29.98-.86 44.96-.75 23.46.17 46.94.32 70.36 1.48 13.42.66 26.69 3.83 40.11 4.92 20.23 1.65 40.53 2.45 60.79 3.68 1.61.1 3.21.63 4.79 1.04 3.28.84 6.57 2.56 9.81 2.45 8.8-.3 17.55-1.69 26.35-2.02 7.45-.28 14.92.36 22.39.52 15.96.33 31.93.68 47.89.82 3.1.03 6.39-.37 9.26-1.46 6.82-2.59 12.91-2.46 18.44 2.82 2.41 2.3 4.93 4.5 7.57 6.53 3.85 2.97 6.59 2.2 8.78-2.06 1.36-2.65 2.71-5.38 4.53-7.71.77-.98 3.01-1.8 4.1-1.4 11.64 4.36 23.74 4.99 35.93 4.58 7.64-.26 15.25-1.47 22.88-1.62 29.61-.59 59.23-1.27 88.84-1.15 9.4.04 18.77.32 28.19.19 13.65-.18 27.32 2.41 41.01 3.46 3.6.27 7.55-.14 10.91-1.39 8.15-3.05 16.21-6.21 25.08-5.47 1.36.11 3.5 1.88 3.68 3.12.88 5.96 1.96 6.63 7.64 4.96 9.54-2.81 19.04-5.73 29.28-5.15 13.61.77 27.27.69 40.87 1.56 6.92.44 13.76 1.83 19.68 6.32 1.71 1.29 4.95 1.04 7.41.78 7.83-.83 15.61-2.64 23.45-2.88 8.26-.25 16.58 1.4 24.85 1.24 13.1-.25 26.18-1.32 39.27-2.02 1.99-.11 4-.08 5.99-.17 20.75-1.04 41.49-2.46 62.25-3.01 14.12-.38 28.27.74 42.41.67 16.15-.08 32.29-.74 48.44-1.12 6.82-.16 13.65-.25 20.47-.39 17.3-.36 34.59-.81 51.89-.95 1.11 0 2.56 2.14 3.27 3.58.52 1.06.1 2.59.1 4.51 2.31-1.06 4.2-2.02 6.16-2.8 6.83-2.72 13.32-6.26 21.19-5.71 13.27.91 26.58 1.6 39.87 1.67 13.12.07 26.25-1.26 39.37-1.1 78.09.93 156.19-1.77 234.3 2 33.3 1.61 66.75 3.89 100.21 1.25 11.93-.94 23.97-.34 35.95-.86 13.95-.6 27.87-1.95 41.83-2.36 7.77-.23 15.58.95 23.38 1.19 10.13.31 20.28.39 30.42.45 12.78.08 25.56.21 38.34 0 13.42-.23 26.27-6.96 40.17-2.86 8.75 2.58 18.54.39 26.89 5.71 3.17 2.02 6.99 3.08 10.58 4.42 6.29 2.36 8.37.6 7.32-6.05-.88-5.59-.01-6.92 5.57-8.31 1.28-.32 2.61-.58 3.92-.59 18.96-.23 37.92-.52 56.88-.55 5.14 0 10.35.43 15.39 1.37 1.97.37 4.43 2.37 5.17 4.22 1.65 4.17 3.84 4.51 7.22 2.4 1.55-.97 3.25-1.75 4.67-2.89 4.92-3.93 10.46-4.68 16.5-3.85 6.56.91 13.14 1.87 19.74 2.21 7.63.39 15.3.2 22.95.15 15.82-.11 31.69.38 47.46-.61 21.41-1.34 42.54.45 63.74 2.91 9.4 1.09 18.98 1.57 28.42 1.15 16.22-.73 32.39-2.8 48.61-3.54 13.96-.64 27.96-.21 41.95-.24 1.16 0 2.33.07 3.49.15 6.9.52 13.8 1.55 20.69 1.47 14.12-.17 28.24-1.16 42.36-1.32 3.57-.04 7.17 1.75 10.75 2.69 3.63.96 7.26 1.91 11.29 2.98v-3.34c26.95-1.52 53.6-2.05 80.01-4.87 16.56-1.77 33.02-2.49 49.58-2.48 3.37 0 6.74.76 10.86 1.25-4.23 4.52-7.73 8.26-11.22 12 .33.42.66.84.99 1.25 5.64-1.23 11.36-2.21 16.91-3.76 9.1-2.54 17.99-5.96 27.18-8.07 9.53-2.19 19.33-4.65 28.98-4.51 16.74.24 32.64-3.98 48.82-6.75 1.81-.31 3.33-2.35 4.98-3.59z"/><g fill="transparent"><path d="m4.13 383.97c2.57-1.15 5.09-3.18 7.72-3.32 26.87-1.43 53.82-1.73 80.59-4.11 12.97-1.15 25.89-.84 38.78-1.85 15.56-1.21 31.05-3.35 46.57-5.1 1.15-.13 2.28-.55 3.44-.6 16.12-.69 32.23-1.3 48.35-2.01 6.14-.27 12.28-1.18 18.39-.97 6.57.22 13.11 1.38 19.66 2.21 3.93.5 7.83 1.55 11.76 1.64 13.66.3 27.32.48 40.98.29 4.74-.07 9.46-1.32 14.19-2.05 2.29-.35 4.57-.99 6.87-1.06 10.76-.33 8.91-.8 10.27 9.59 5.95-1.26 12.16-1.69 17.67-3.89 18.17-7.28 37.46-6.46 56.31-8.96 12.71-1.69 25.2.23 37.77-.09 13.09-.34 26.14-2.05 39.23-2.83 7.62-.45 15.29-.05 22.93-.35 9.11-.36 18.22-1.67 27.31-1.48 27.93.56 55.86 1.52 83.78 2.59 4.92.19 9.82 2.43 14.7 2.31 8.45-.21 16.85-1.91 25.3-2.25 6.41-.25 12.92.86 17.48-5.25.23-.31.99-.48 1.39-.36 7.32 2.13 12.16-2.57 17.6-6.06 7.96-5.12 16.2-9.82 25.15-15.2.45 1.59 1.5 3.2 1.07 4.11-2.81 5.93-5.94 11.71-8.89 17.38 1.29 1.36 3.14 2.48 3.68 4.04 2.14 6.16 7.32 6.55 12.36 6.6 18.16.17 36.32.34 54.47-.11 5.6-.14 11.16-2.23 18.08-3.72-5.53-5.19-1.64-8.35.26-13.08 4.37 3.76 8.66 6.83 12.17 10.63 3.96 4.28 8.37 5.08 13.91 4.69 18.74-1.32 37.51-2.53 56.28-3.12 8.25-.26 16.54 1.56 24.81 1.56 6.93 0 13.85-1.54 20.8-1.9 12.3-.63 24.62-.77 36.92-1.31 6.29-.28 12.56-1.36 18.84-1.43 8.14-.09 16.28.49 24.43.73 9.12.27 18.25.46 27.37.71 13.31.37 26.62.77 39.93 1.14 19.93.57 39.86 1.49 59.8 1.63 53.31.37 106.63.56 159.94.45 13.12-.03 26.23-1.67 39.36-2.2 4.76-.19 9.56.86 14.36 1.07 14.1.61 28.2 1.5 42.31 1.51 23.43.01 46.86-.54 70.29-.92 11.81-.19 23.62-.48 35.43-.8 12.46-.34 24.91-1.04 37.37-1.09 15.14-.05 30.31.98 45.43.52 22.94-.69 45.85-2.17 68.77-3.46 12.13-.68 24.24-2.25 36.37-2.33 8.89-.06 17.88 1.16 26.66 2.75 8.43 1.53 16.21.27 23.79-3.06 5.34-2.34 9.68-3.4 14.63 1.74 2.61 2.71 7.81 3.73 11.95 4.04 14.25 1.09 28.57 1.23 42.82 2.35 9.26.73 17.24-2.25 25.23-6.15 2.78-1.35 5.84-2.3 8.88-2.88 3.97-.76 5.01 1.49 4.07 5.02-.3 1.12-.73 2.21-1 3.34-.91 3.93.83 6.12 4.75 5.1 8.18-2.13 16.4-4.33 24.27-7.36 7.1-2.74 8.59-2.81 13.65 2.78 1.07 1.18 3.15 2.14 4.7 2.05 12.45-.73 24.88-1.93 37.34-2.6 8.79-.47 17.62-.42 26.43-.46 18.28-.09 36.57.01 54.86-.13 49.46-.39 98.93-1.11 148.39-1.16 17.59-.02 35.18 1.83 52.78 2.25 12.95.31 25.93-.52 38.89-.44 5.6.03 11.19 1.14 16.79 1.66 9.28.86 18.57 1.57 27.84 2.48 14.22 1.4 28.41 3.29 42.65 4.29 19.39 1.37 38.82 2.53 58.26 3 26.13.63 52.29.29 78.43.8 25.94.51 51.86 1.61 77.8 2.32 8.65.24 17.3.14 25.95.06 1.95-.02 3.89-.62 5.84-.95v7c-865.58 0-1731.16 0-2596.74 0z"/><path d="m2597.87.03c-1.65 1.24-3.17 3.28-4.98 3.59-16.18 2.77-32.08 6.99-48.82 6.75-9.65-.14-19.45 2.32-28.98 4.51-9.19 2.11-18.07 5.53-27.18 8.07-5.55 1.55-11.27 2.53-16.91 3.76-.33-.42-.66-.84-.99-1.25 3.5-3.74 7-7.48 11.22-12-4.12-.5-7.49-1.25-10.86-1.25-16.56-.01-33.02.71-49.58 2.48-26.4 2.82-53.05 3.35-80.01 4.87v3.34c-4.04-1.06-7.66-2.02-11.29-2.98-3.58-.95-7.18-2.73-10.75-2.69-14.12.16-28.24 1.15-42.36 1.32-6.89.08-13.79-.95-20.69-1.47-1.16-.09-2.33-.16-3.49-.15-13.98.03-27.99-.4-41.95.24-16.22.74-32.39 2.81-48.61 3.54-9.44.43-19.02-.06-28.42-1.15-21.2-2.46-42.33-4.25-63.74-2.91-15.77.99-31.64.5-47.46.61-7.65.05-15.32.25-22.95-.15-6.6-.34-13.18-1.3-19.74-2.21-6.05-.83-11.59-.08-16.5 3.85-1.42 1.13-3.11 1.92-4.67 2.89-3.38 2.11-5.56 1.77-7.22-2.4-.73-1.85-3.2-3.85-5.17-4.22-5.04-.95-10.25-1.38-15.39-1.37-18.96.03-37.92.32-56.88.55-1.31.02-2.64.28-3.92.59-5.58 1.39-6.45 2.72-5.57 8.31 1.04 6.66-1.03 8.41-7.32 6.05-3.58-1.34-7.4-2.39-10.58-4.42-8.35-5.32-18.13-3.13-26.89-5.71-13.9-4.1-26.76 2.63-40.17 2.86-12.78.22-25.56.08-38.34 0-10.14-.06-20.28-.14-30.42-.45-7.8-.24-15.61-1.42-23.38-1.19-13.95.41-27.88 1.76-41.83 2.36-11.97.51-24.02-.08-35.95.86-33.46 2.64-66.91.35-100.21-1.25-78.11-3.77-156.21-1.07-234.3-2-13.12-.16-26.25 1.17-39.37 1.1-13.3-.07-26.6-.76-39.87-1.67-7.88-.54-14.36 2.99-21.19 5.71-1.96.78-3.84 1.74-6.16 2.8 0-1.92.42-3.45-.1-4.51-.71-1.43-2.15-3.59-3.27-3.58-17.3.14-34.59.58-51.89.95-6.82.14-13.65.23-20.47.39-16.15.38-32.29 1.05-48.44 1.12-14.13.07-28.29-1.05-42.41-.67-20.76.55-41.5 1.97-62.25 3.01-2 .1-4 .07-5.99.17-13.09.7-26.17 1.77-39.27 2.02-8.27.16-16.59-1.5-24.85-1.24-7.84.24-15.62 2.04-23.45 2.88-2.46.26-5.7.51-7.41-.78-5.92-4.49-12.76-5.87-19.68-6.32-13.6-.87-27.26-.79-40.87-1.56-10.24-.58-19.73 2.34-29.28 5.15-5.68 1.67-6.76 1-7.64-4.96-.18-1.24-2.33-3-3.68-3.12-8.87-.74-16.93 2.42-25.08 5.47-3.36 1.25-7.31 1.66-10.91 1.39-13.69-1.04-27.36-3.64-41.01-3.46-9.42.13-18.79-.15-28.19-.19-29.61-.12-59.23.56-88.84 1.15-7.63.15-15.25 1.36-22.88 1.62-12.19.42-24.29-.22-35.93-4.58-1.09-.41-3.33.41-4.1 1.4-1.82 2.33-3.17 5.05-4.53 7.71-2.19 4.26-4.93 5.03-8.78 2.06-2.64-2.03-5.16-4.23-7.57-6.53-5.53-5.28-11.63-5.41-18.44-2.82-2.87 1.09-6.16 1.49-9.26 1.46-15.97-.14-31.93-.49-47.89-.82-7.47-.15-14.94-.8-22.39-.52-8.8.33-17.55 1.72-26.35 2.02-3.24.11-6.53-1.61-9.81-2.45-1.58-.41-3.18-.94-4.79-1.04-20.27-1.23-40.56-2.03-60.79-3.68-13.42-1.09-26.69-4.26-40.11-4.92-23.42-1.16-46.9-1.31-70.36-1.48-14.98-.11-29.97.6-44.96.75-3.64.04-7.28-.84-10.93-1-9.78-.44-19.57-.73-29.36-1.08-9.3-.33-18.6-.89-27.9-.96-11.6-.08-23.2.24-34.8.38v-6.95h2596.74z"/></g></svg>
